<?xml version="1.0" encoding="UTF-8" standalone="no"?>
<svg
   xmlns:svg="http://www.w3.org/2000/svg"
   xmlns="http://www.w3.org/2000/svg"
   version="1.0"
   width="510"
   height="211"
   id="svg2"
   xml:space="preserve"><defs
     id="defs5" /><g
     transform="matrix(1.25,0,0,-1.25,-35.219842,793.1075)"
     id="g11"><path
       d="M 66.300726,570.02637 C 68.888459,569.11929 71.784256,568.34229 74.587633,567.59267 C 83.921956,565.09735 93.584879,562.5062 93.584879,554.59924 C 93.584879,548.10252 87.919935,544.36811 78.041367,544.36811 C 64.116899,544.36811 58.698405,548.56119 58.698405,559.31603 L 58.698405,559.87397 L 44.962198,559.87397 L 44.948506,559.33314 C 44.760245,552.06627 47.091259,545.73043 51.691673,541.00679 C 57.318965,535.23231 66.167232,532.05241 76.596891,532.05241 C 90.326253,532.05241 106.35925,538.3951 106.35925,556.29701 C 106.35925,569.78334 93.660184,573.44245 81.375298,576.96464 L 80.766017,577.14263 C 68.576973,580.78805 55.984024,584.56354 55.984024,598.7858 C 56.233897,616.84859 71.712374,623.28027 86.122898,623.28027 C 96.692897,623.359 104.58959,620.87395 109.59734,615.90044 C 113.73223,611.80662 115.82022,606.00818 115.82706,598.67627 L 115.82706,598.11149 L 128.57747,598.11149 L 128.58774,598.65915 C 128.88895,608.94163 126.12323,617.15665 120.37613,623.07489 C 113.21195,630.44446 101.68353,634.17887 86.095514,634.17887 C 74.330914,634.17887 63.500772,631.18723 55.590387,625.76189 C 46.351907,619.41236 41.463966,609.99589 41.463966,598.51539 C 41.463966,581.29122 54.022686,574.44879 66.300726,570.02637"
       id="path15"
       style="fill:#1752a4;fill-opacity:1;fill-rule:nonzero;stroke:none" /><path
       d="M 171.24768,582.15722 C 178.78839,582.15722 182.55703,577.4815 182.55703,571.60091 C 182.55703,570.84787 182.39958,569.79703 182.24897,569.03714 L 155.71786,569.03714 C 157.97357,577.33432 163.25172,582.15722 171.24768,582.15722 M 210.45389,567.07923 C 210.45389,591.66269 189.4953,601.31192 172.15133,601.31192 C 152.69884,601.31192 125.25038,589.54732 125.25038,553.65451 C 125.25038,534.65384 136.40913,519.12402 164.15195,519.12402 C 197.93967,519.12402 203.82025,538.57309 205.78159,543.85467 L 192.74366,543.85467 C 191.81605,541.86252 189.23858,537.23473 184.08023,533.33943 C 181.01329,530.82701 176.9537,528.71164 171.48386,527.8251 C 169.64917,527.45885 167.6673,527.21582 165.53139,527.14051 C 157.64497,526.85299 150.79911,529.58791 145.72976,535.0509 C 139.88682,541.32855 136.88834,550.96409 137.90494,560.19914 C 139.72252,576.67027 151.32624,593.20985 169.99489,592.95656 C 179.49351,592.82306 186.7022,589.97176 191.4498,584.4677 C 199.08977,575.61259 197.63502,562.95802 197.4365,561.54093 L 197.34065,560.805 L 153.53403,560.805 L 153.85236,562.48908 L 195.85853,562.48908 C 196.15632,565.49441 196.61157,575.9138 190.19016,583.36894 C 185.76431,588.50333 178.95953,591.1561 169.9675,591.27932 C 169.43695,591.28959 168.91324,591.27932 168.39638,591.25879 C 168.35188,591.25879 168.3245,591.25879 168.29027,591.25879 C 168.11228,591.24509 167.92744,591.22798 167.75287,591.21771 C 166.75338,591.13898 165.771,591.02603 164.816,590.87199 C 164.48397,590.81038 164.15195,590.75219 163.82677,590.67689 C 163.76174,590.66662 163.70012,590.65635 163.62824,590.64266 C 151.25094,587.89747 143.09068,576.73531 140.34891,564.63526 C 139.96555,562.80399 139.72937,561.16099 139.59245,559.8637 C 139.37338,557.77229 139.35627,555.67746 139.53084,553.61685 C 139.53426,553.58263 139.53426,553.55182 139.53768,553.5039 C 139.54795,553.42175 139.55822,553.31906 139.56506,553.23006 C 140.24965,546.75389 142.86134,540.59604 146.96201,536.18389 C 151.6788,531.09742 158.0831,528.54391 165.46635,528.81432 C 176.56006,529.21823 183.26558,533.94872 187.09583,538.2616 C 188.70118,540.26744 189.85813,542.26301 190.7344,543.85467 L 177.13511,543.85467 C 175.61533,541.13002 171.85354,538.2753 165.36709,538.2753 C 156.01223,538.2753 153.15066,545.21357 153.15066,553.50048 L 208.94438,553.50048 C 210.3067,558.33365 210.45389,562.85534 210.45389,567.07923"
       id="path17"
       style="fill:#1752a4;fill-opacity:1;fill-rule:nonzero;stroke:none" /><path
       d="M 332.28271,581.23303 C 322.89705,576.49228 318.67658,570.598 314.82921,557.50872 L 307.42199,521.07509 L 322.19192,521.07509 L 328.96932,553.80512 C 332.44701,570.24886 335.1477,573.86005 347.81253,573.86005 C 351.5846,573.86005 355.66131,573.25761 359.26907,571.89529 L 361.90473,584.35132 C 358.00943,585.52196 345.03654,587.65787 332.28271,581.23303 M 362.09299,585.72734 L 364.85529,598.28948 C 362.14433,599.19655 359.26907,599.49093 354.28871,599.49093 C 354.28871,599.49093 342.39746,600.55203 336.49291,594.65091 L 337.42053,599.34716 L 323.3523,599.34716 L 316.87612,567.55501 C 321.52103,576.26636 325.09799,578.72745 332.28271,582.65012 C 345.17346,589.69108 362.09299,585.72734 362.09299,585.72734 z M 313.20674,557.91947 L 321.64083,599.34716 L 308.47283,599.34716 L 292.33031,521.07509 L 305.71737,521.07509 L 313.20674,557.91947"
       id="path19"
       style="fill:#1752a4;fill-opacity:1;fill-rule:nonzero;stroke:none" /><path
       d="M 296.45493,580.50395 C 296.45493,599.50119 272.62451,601.31192 258.44333,601.31192 C 239.29547,601.31192 223.15637,596.48217 218.48407,575.6742 L 230.38902,575.6742 C 233.87698,592.16586 254.18863,593.17905 260.50735,593.08321 C 270.88224,592.91891 277.82394,590.64266 281.13733,586.29554 C 283.88937,582.67066 282.97887,579.00813 282.95491,578.89517 C 282.95491,578.89517 273.34675,530.24511 273.36044,530.31014 C 272.10081,525.02514 273.65139,523.88531 275.92764,521.07509 L 288.15434,521.07509 C 286.94946,524.69654 287.55532,521.98558 286.94946,528.01678 C 286.94946,533.14433 296.45493,568.28752 296.45493,580.50395 M 238.07349,526.37378 C 234.10974,526.39774 226.85655,527.23293 222.89623,531.86415 C 220.58575,534.57511 219.73344,538.16234 220.35642,542.55395 C 221.02389,547.16121 223.46443,550.98462 227.64383,554.02761 C 231.26186,556.83441 236.80016,559.4016 245.30613,560.78104 C 247.11686,561.13018 249.02001,561.43824 251.03269,561.70181 L 252.05272,561.83188 C 255.85559,562.37955 259.6927,563.00252 263.3518,563.9849 C 265.53221,564.6113 267.8153,565.27192 269.90671,566.28169 C 277.38238,569.91683 280.37402,574.50013 280.37402,574.50013 C 280.95592,577.43016 281.31533,579.25458 281.31533,579.26485 C 281.34613,579.38807 282.05468,582.34891 279.78186,585.31658 C 277.71783,587.99331 272.70666,591.21771 260.48339,591.40597 C 254.55146,591.49839 235.58844,590.57762 232.11759,575.6742 L 246.52812,575.6742 C 248.19166,581.55821 252.41213,583.67358 258.44333,583.67358 C 262.96844,583.67358 267.79476,582.30441 267.79476,576.88591 C 267.79476,567.22299 254.3632,568.42786 245.92226,567.82885 C 223.45416,566.17557 208.0818,560.5962 208.0818,539.93199 C 208.0818,524.99776 219.99701,519.12402 233.40804,519.12402 C 242.16046,519.12402 250.80335,519.59296 258.71374,524.48774 L 258.89173,521.07509 L 274.06557,521.07509 C 271.89201,523.06038 270.55364,525.54201 271.71402,530.57713 C 271.71402,530.57713 277.00244,557.43342 279.74078,571.2552 C 279.59359,571.10801 279.45668,570.97452 279.31634,570.83418 C 279.28211,570.78968 279.23761,570.74861 279.19996,570.71438 C 272.20349,563.59469 261.75672,561.51697 252.28548,560.17861 L 251.24491,560.03827 C 244.79954,559.20307 225.70645,556.74199 222.37252,544.00185 C 222.16372,543.11189 222.15345,542.56422 222.15345,542.52999 L 222.15345,542.48207 L 222.14318,542.42731 C 221.71189,539.89434 221.84881,537.68655 222.51286,535.80052 C 222.5779,535.63964 222.64978,535.47534 222.71824,535.32131 C 222.80039,535.13647 222.87227,534.95163 222.96469,534.77022 C 223.06737,534.56142 223.19402,534.35604 223.31382,534.15409 C 223.39598,534.03087 223.46443,533.90422 223.54316,533.78099 C 223.66981,533.59615 223.81357,533.41816 223.95734,533.24017 C 224.07029,533.10325 224.1764,532.95949 224.29621,532.82942 C 224.45024,532.65143 224.60427,532.48713 224.76515,532.32282 C 224.81991,532.27833 224.85757,532.23383 224.91233,532.18248 C 225.09375,532.01134 225.28201,531.85731 225.46342,531.69301 C 231.03595,527.21582 241.20889,528.13658 241.34238,528.14685 C 243.28661,528.24612 245.02888,528.42069 246.61711,528.66029 C 256.02674,530.25538 259.94941,534.37658 260.0076,534.43477 L 260.0076,534.4245 L 260.45601,534.01717 C 260.45601,534.01717 258.84381,531.82992 258.82327,531.79912 C 258.82327,531.79912 251.90896,526.28478 238.07349,526.37378 z M 247.43177,536.76921 C 242.61229,536.76921 237.93999,538.12469 237.93999,543.55003 C 237.93999,549.28001 246.14133,551.94989 251.03611,552.97677 C 257.2453,554.29459 258.47756,554.2056 263.42369,555.7733 C 261.60953,544.15246 257.53967,536.76921 247.43177,536.76921"
       id="path21"
       style="fill:#1752a4;fill-opacity:1;fill-rule:nonzero;stroke:none" /><path
       d="M 90.192758,589.79035 L 87.334614,590.55709 C 74.669783,593.94578 70.85322,594.96924 70.85322,600.64103 C 70.85322,606.97687 77.740149,609.80421 84.568889,609.80421 C 89.569786,609.80421 93.194666,608.90055 95.628367,607.03848 C 98.000455,605.25171 99.201903,602.43807 99.201903,598.67627 L 99.201903,598.11149 L 114.45789,598.11149 L 114.45789,598.67627 C 114.46474,605.37151 112.49998,610.74209 108.63207,614.62026 C 103.80232,619.44659 96.234225,621.89741 86.122898,621.89741 C 73.026778,621.89741 57.630452,615.84225 57.36004,598.79265 C 57.106744,585.69653 69.63808,581.98265 81.75182,578.38858 L 82.830042,578.06682 C 94.505647,574.59255 107.74211,570.65619 107.74211,556.29701 C 107.74211,537.37849 90.96634,530.67297 76.596891,530.67297 C 65.417611,530.67297 56.429004,533.80153 50.627143,539.71977 C 45.800815,544.64536 43.442418,551.22765 43.59645,559.30576 L 43.610142,559.87397 L 29.312575,559.87397 L 29.312575,559.32287 C 29.179081,547.97929 32.513012,538.77847 39.24591,531.96684 C 46.978302,524.14203 58.818207,520.00371 73.478605,520.00371 C 107.65996,520.00371 122.96387,538.14522 122.96387,556.11901 C 122.96387,578.21743 104.25757,585.91902 90.192758,589.79035"
       id="path23"
       style="fill:#1752a4;fill-opacity:1;fill-rule:nonzero;stroke:none" /><path
       d="M 406.88199,569.16379 C 397.30464,571.40238 388.67202,572.4498 388.67202,577.95387 C 388.67202,583.45793 395.26457,585.25839 400.7481,585.25839 C 403.74316,585.25839 407.20032,584.35132 408.77487,582.57482 C 410.34941,580.93866 410.96896,578.54603 410.81493,575.86588 L 423.48319,575.86588 C 423.52084,576.28006 423.91105,581.6609 419.89938,586.23051 C 416.13758,590.51601 409.76752,592.77514 400.98086,592.93602 C 388.22704,593.1722 379.51911,589.42067 376.44874,582.38656 C 374.85708,578.72745 374.71674,575.68789 376.00719,573.08304 C 378.91325,567.24353 388.91847,564.39223 398.06795,562.18102 C 410.21592,559.2373 417.66763,556.75568 418.83827,547.05168 C 419.34144,542.91336 418.051,538.84692 415.20997,535.59514 C 412.00269,531.9155 405.33825,527.47596 391.88614,527.26032 C 368.89434,526.89749 365.14281,540.39409 364.63622,546.67174 L 353.95327,546.67174 C 354.74054,526.56888 368.08311,519.12402 388.8192,519.12402 C 407.98417,519.12402 430.59603,523.43691 430.59603,547.12014 C 430.59603,562.32478 421.95656,565.59368 406.88199,569.16379 M 384.42074,553.52786 C 397.46209,550.40957 403.90062,550.10493 403.90062,543.40284 C 403.90062,537.14915 396.51737,535.50272 391.96487,535.50272 C 387.72044,535.50272 383.94838,536.40295 381.43937,538.63813 C 379.54991,540.5755 378.2937,543.10505 378.458,546.67174 L 366.04989,546.67174 C 366.63863,539.57943 370.87964,528.33169 391.86218,528.66372 C 401.9564,528.82117 409.8702,531.61428 414.15913,536.51591 C 416.76398,539.51782 417.90039,543.10162 417.45199,546.88738 C 416.42511,555.39335 410.36311,557.76544 397.74277,560.81527 C 388.27838,563.10863 377.92745,566.08658 374.75439,572.46007 C 373.28254,575.41406 373.42288,578.94309 375.17199,582.94792 C 378.47854,590.53997 387.65198,594.57902 401.00482,594.336 C 410.22619,594.16485 416.94197,591.74484 420.97418,587.13758 C 425.16384,582.34891 424.97216,576.92699 424.89001,575.86588 L 434.99449,575.86588 C 436.09325,595.67436 418.34537,600.88748 401.38819,600.88748 C 383.94838,600.88748 361.95607,595.37999 361.95607,574.6747 C 361.95607,560.08619 372.49184,556.05398 384.42074,553.52786"
       id="path25"
       style="fill:#1752a4;fill-opacity:1;fill-rule:nonzero;stroke:none" /><path
       d="M 130.57646,468.43731 C 130.81264,467.4207 131.65468,465.58259 132.71236,466.07549 C 241.61279,516.98126 360.2138,490.13867 374.77493,487.0375 C 379.97093,485.92847 384.59189,489.23844 386.15959,492.62371 C 387.36103,495.23541 391.13995,502.35852 385.03687,504.22744 C 379.34796,505.96971 245.06995,533.85287 133.25319,472.21622 C 131.04198,470.99766 130.24786,469.90232 130.57646,468.43731"
       id="path27"
       style="fill:#ed1c24;fill-opacity:1;fill-rule:nonzero;stroke:none" /></g></svg>